<?xml version="1.0" encoding="UTF-8"?>
<svg version="1.1" xmlns="http://www.w3.org/2000/svg" width="284" height="315">
<path d="M0 0 C1.58995633 0.62844613 3.17916752 1.25877768 4.76806641 1.88989258 C6.0956749 2.41610954 6.0956749 2.41610954 7.45010376 2.95295715 C10.86257585 4.3541924 14.12222052 5.95200767 17.375 7.6875 C18.0772168 8.06068359 18.77943359 8.43386719 19.50292969 8.81835938 C27.79684087 13.31307905 35.81177334 18.28074548 43.85351562 23.20678711 C53.6822708 29.22496683 63.59435967 35.08836313 73.55029297 40.89331055 C74.752292 41.59421537 75.95427784 42.29514284 77.15625 42.99609375 C78.03278732 43.50706856 78.03278732 43.50706856 78.92703247 44.02836609 C82.60132484 46.17349465 86.25898226 48.34443532 89.90625 50.53515625 C114.90431248 67.85006099 114.90431248 67.85006099 143 74 C166.02825202 67.28095989 187.16409755 52.74858127 207.40771484 40.22021484 C264.98773894 4.59695931 264.98773894 4.59695931 278 3 C284.329642 25.3726969 284.329642 25.3726969 280 36 C277.02060769 41.20797776 272.76069091 43.87273532 267.59765625 46.75 C266.67216728 47.26946449 266.67216728 47.26946449 265.72798157 47.79942322 C264.44634342 48.51873899 263.16353095 49.23596626 261.87957764 49.95114136 C259.03948154 51.53599706 256.21356809 53.14557038 253.38671875 54.75390625 C252.29713867 55.37281738 251.20755859 55.99172852 250.08496094 56.62939453 C238.69452703 63.11038445 227.39161026 69.71189255 216.17041016 76.48339844 C148.99589668 117 148.99589668 117 138.8125 117 C120.03578454 112.07495988 103.26169086 99.87314104 87.03222656 89.65454102 C61.91647834 73.63099735 61.91647834 73.63099735 35 61 C36.96612159 71.89793112 40.43109234 79.8237079 49.53515625 86.42578125 C54.91523997 90.08305952 60.55460666 92.99083119 66.375 95.875 C75.96069781 100.73452136 85.17130894 105.98718183 94.3125 111.625 C102.5029175 116.66876333 110.70361092 121.6597007 119.125 126.3125 C119.88723877 126.73805176 120.64947754 127.16360352 121.43481445 127.60205078 C132.62237975 134.07862221 132.62237975 134.07862221 145 134 C147.81554747 132.99355397 150.49341638 131.79513099 153.1875 130.5 C153.99719238 130.11328125 154.80688477 129.7265625 155.64111328 129.328125 C166.30135285 124.06830774 176.31370631 117.66251208 186.41441345 111.41976929 C193.2509886 107.20713523 200.18541702 103.16482176 207.125 99.125 C215.03022519 94.51847757 222.90637155 89.87669834 230.6875 85.0625 C266.09529107 63.23225539 266.09529107 63.23225539 280 62 C280.09932276 66.44736742 280.17168003 70.89413713 280.21972656 75.34228516 C280.23976791 76.85346736 280.26700905 78.36457272 280.30175781 79.87548828 C280.35061109 82.05520643 280.37304224 84.23389431 280.390625 86.4140625 C280.41157227 87.7232666 280.43251953 89.0324707 280.45410156 90.38134766 C279.92340355 94.61038313 278.65281071 96.70761003 276 100 C273.50390625 101.9140625 273.50390625 101.9140625 270.5625 103.625 C269.72440796 104.12012085 269.72440796 104.12012085 268.86938477 104.62524414 C266.92248993 105.76761981 264.96318931 106.88586936 263 108 C261.90703613 108.62189209 261.90703613 108.62189209 260.79199219 109.25634766 C253.969386 113.13640124 253.969386 113.13640124 250.76879883 114.94824219 C243.16880695 119.27360312 235.70521908 123.80725257 228.25 128.375 C217.27269101 135.0953052 206.15416351 141.50133073 194.88671875 147.7265625 C191.09201883 149.82433457 187.32480596 151.95938377 183.58203125 154.1484375 C174.43833435 159.4951611 165.21180676 164.54559917 155.6875 169.1875 C154.73858887 169.65760498 153.78967773 170.12770996 152.81201172 170.61206055 C146.71919957 173.51828956 141.17869838 175.95443184 134.33203125 174.390625 C131.19705099 172.97137812 128.08229218 171.52978244 125 170 C124.29278809 169.65453125 123.58557617 169.3090625 122.85693359 168.953125 C110.33957269 162.7829298 98.41629084 155.71794658 86.53637695 148.42114258 C61.71143649 132.26688337 61.71143649 132.26688337 35 120 C37.03817435 131.56753337 40.2758118 140.08151925 49.97265625 147.1484375 C54.70677208 150.04388383 59.68457933 152.40910401 64.67431641 154.8293457 C74.6503897 159.70931873 84.11814448 165.39712404 93.67138672 171.046875 C99.77122563 174.62606755 105.91799829 178.12322313 112.0625 181.625 C113.25782817 182.3067759 114.45314107 182.98857859 115.6484375 183.67041016 C117.83100069 184.91493689 120.01467421 186.15751942 122.19970703 187.39770508 C123.88090312 188.35966584 125.55599949 189.33258389 127.21826172 190.3269043 C133.37156345 194.0010899 137.36982092 193.90973162 144.2421875 192.1875 C173.42181913 183.15122698 199.28065064 164.93990055 225 149 C234.5919004 143.05709249 244.23354218 137.2151787 254 131.5625 C254.84860596 131.06588867 255.69721191 130.56927734 256.5715332 130.05761719 C270.62004109 122 270.62004109 122 278 122 C280.29681577 129.33106094 280.70152472 136.33148123 281 144 C281.14308594 145.14726562 281.28617187 146.29453125 281.43359375 147.4765625 C281.65359645 151.23905765 281.49200463 153.52162503 280 157 C275.92527437 161.18573806 270.57453241 163.85373527 265.49414062 166.62304688 C262.22568901 168.42747788 259.05526263 170.37545812 255.87255859 172.32592773 C243.70577971 179.75359132 231.33666623 186.85968712 219 194 C218.12794922 194.50499023 217.25589844 195.00998047 216.35742188 195.53027344 C195.17054816 207.77612284 173.788243 219.85074685 152 231 C151.08476562 231.47050781 150.16953125 231.94101562 149.2265625 232.42578125 C143.55532116 235.16719525 139.04036099 235.92064655 132.80078125 234.03125 C112.88477425 225.28872509 94.31630947 213.4438985 75.72607422 202.22460938 C65.28131169 195.93407061 54.6854475 189.98821578 43.89744568 184.30682373 C41.40496416 182.9936205 38.91536508 181.67498648 36.42544556 180.35693359 C34.62272137 179.40674187 32.81495356 178.4667492 31.0065918 177.52734375 C17.40117637 170.34373075 4.88781805 162.91087629 -0.2734375 147.80859375 C-1.84444252 141.73573025 -2.15839259 135.71724069 -2.16796875 129.47265625 C-2.17202225 128.61110428 -2.17607574 127.74955231 -2.18025208 126.8618927 C-2.18991135 123.92872644 -2.1896057 120.99568046 -2.1875 118.0625 C-2.1882251 117.03795715 -2.1889502 116.01341431 -2.18969727 114.95782471 C-2.18679949 76.6340632 -0.96815574 38.30869315 0 0 Z " fill="#88C595" transform="translate(2,80)"/>
<path d="M0 0 C10.60024897 6.81982032 21.4211662 12.97732176 32.5390625 18.9140625 C41.43717788 23.67056103 50.20260632 28.65984008 58.96337891 33.66357422 C61.57413694 35.15348325 64.18922983 36.63554916 66.8046875 38.1171875 C76.71134119 43.75865352 86.27135094 49.75317143 95.66796875 56.20703125 C96.65796875 56.86703125 97.64796875 57.52703125 98.66796875 58.20703125 C97.4409518 61.88808209 96.6793845 62.01355029 93.3125 63.703125 C92.39162598 64.17282715 91.47075195 64.6425293 90.52197266 65.12646484 C89.51827637 65.62742676 88.51458008 66.12838867 87.48046875 66.64453125 C85.35849338 67.72744085 83.2374201 68.81211969 81.1171875 69.8984375 C80.03614746 70.45031738 78.95510742 71.00219727 77.84130859 71.57080078 C70.32275921 75.44749858 62.9229905 79.54679028 55.51757812 83.63427734 C53.58782448 84.69934528 51.65679455 85.76210349 49.72460938 86.82275391 C38.1219853 93.19817372 26.66328631 99.75405187 15.38171387 106.67922974 C-31.65088453 135.54895764 -31.65088453 135.54895764 -42.36328125 133.7265625 C-48.97744668 132.01965882 -54.89716396 128.64327386 -60.89453125 125.45703125 C-62.18364628 124.78120245 -63.47287329 124.10558722 -64.76220703 123.43017578 C-74.87313519 118.10363871 -84.76321131 112.42746818 -94.58984375 106.59375 C-100.20138525 103.26421007 -105.88484375 100.07448297 -111.58203125 96.89453125 C-125.04133431 89.34364993 -138.19466632 81.29990027 -151.33203125 73.20703125 C-152.82162354 72.2936499 -152.82162354 72.2936499 -154.34130859 71.36181641 C-156.98938242 69.73530653 -159.63086965 68.09875491 -162.26953125 66.45703125 C-163.02588867 65.99224365 -163.78224609 65.52745605 -164.56152344 65.04858398 C-168.68320735 62.458942 -172.03492274 59.79449178 -175.33203125 56.20703125 C-142.95267466 39.83030917 -142.95267466 39.83030917 -135.33203125 41.20703125 C-126.93637989 44.34871607 -119.44903154 49.58281778 -111.94946289 54.40380859 C-106.07623306 58.16253805 -100.10076775 61.67180048 -94.01953125 65.08203125 C-86.43445121 69.33918041 -79.07331802 73.85916487 -71.76953125 78.58203125 C-54.46169104 89.97662253 -54.46169104 89.97662253 -34.33203125 92.20703125 C-31.13527091 91.18173977 -28.2510677 89.85820338 -25.33203125 88.20703125 C-28.06626566 85.29858919 -30.75363133 83.15076155 -34.171875 81.09765625 C-35.13730225 80.51628906 -36.10272949 79.93492188 -37.09741211 79.3359375 C-38.14421143 78.71589844 -39.19101074 78.09585938 -40.26953125 77.45703125 C-41.36982666 76.80089844 -42.47012207 76.14476563 -43.60375977 75.46875 C-53.09341241 69.83755526 -62.74214527 64.50818483 -72.41918945 59.20800781 C-80.80685363 54.61262258 -89.15615321 49.95758794 -97.45703125 45.20703125 C-98.4927124 44.62050781 -99.52839355 44.03398438 -100.59545898 43.4296875 C-118.31160847 33.23766543 -118.31160847 33.23766543 -122.33203125 27.20703125 C-112.84879493 19.07566053 -103.61855555 13.06689461 -90.95703125 11.89453125 C-70.73781816 13.63756686 -51.17015442 29.86722302 -34.51953125 40.39453125 C-33.72256836 40.89831299 -32.92560547 41.40209473 -32.10449219 41.92114258 C-25.84887114 45.87728451 -25.84887114 45.87728451 -23.41259766 47.43164062 C-9.51172469 56.29463892 2.79836055 62.57003238 19.66796875 61.20703125 C22.34730759 60.4712763 24.2430357 59.59270728 26.66796875 58.20703125 C18.74355797 51.96946036 10.74408023 46.69916848 1.85546875 41.89453125 C0.67114653 41.24545944 -0.51284785 40.59578914 -1.6965332 39.94555664 C-9.08133881 35.90322299 -16.53610503 32.00089295 -24.01953125 28.14453125 C-32.18606092 23.93545153 -40.20127968 19.51167284 -48.14453125 14.89453125 C-49.60282349 14.05039673 -49.60282349 14.05039673 -51.09057617 13.18920898 C-67.93988764 3.29524667 -67.93988764 3.29524667 -71.33203125 -1.79296875 C-47.05372807 -25.41186123 -25.34237223 -16.35699153 0 0 Z " fill="#AEC91E" transform="translate(181.33203125,16.79296875)"/>
</svg>
